<?xml version="1.0" standalone="no"?><!-- Generator: Adobe Fireworks CS6, Export SVG Extension by Aaron Beall (http://fireworks.abeall.com) . Version: 0.6.1  --><!DOCTYPE svg PUBLIC "-//W3C//DTD SVG 1.1//EN" "http://www.w3.org/Graphics/SVG/1.1/DTD/svg11.dtd"><svg id="Untitled-Seite%201" viewBox="0 0 52 52" style="background-color:#ffffff00" version="1.1"	xmlns="http://www.w3.org/2000/svg" xmlns:xlink="http://www.w3.org/1999/xlink" xml:space="preserve"	x="0px" y="0px" width="52px" height="52px">	<path d="M 7.1306 7.5536 C 3.2859 11.3984 0.9092 16.1585 0 21.1429 C 0.926 20.3785 2.2139 19.6776 3.8628 19.1429 C 6.1208 18.4104 16.8274 16.7928 19.8967 16.3371 L 9.8584 26.2865 C 8.6963 27.4389 8.0564 28.5904 7.9292 29.7513 C 7.8018 30.9124 8.2283 31.9583 9.1887 32.9101 C 10.1484 33.8622 11.2034 34.2851 12.3745 34.159 C 13.5452 34.0325 14.7063 33.3981 15.8684 32.2458 L 28.9709 19.2429 L 24.4377 14.7478 L 43.2905 12.8571 L 41.384 31.5511 L 36.9849 27.1885 L 23.3796 40.6903 C 21.9868 42.071 20.449 43.1202 18.7646 43.8383 C 17.0808 44.5563 15.3347 44.9012 13.5264 44.8525 C 11.7078 44.7933 9.8481 44.3406 7.9683 43.4732 C 6.9382 42.9949 5.9153 42.3826 4.8999 41.6285 C 5.6135 42.5664 6.3977 43.4661 7.2544 44.3228 C 17.4419 54.5106 33.9036 54.566 44.0227 44.4465 C 54.1418 34.327 54.0867 17.8651 43.8992 7.6772 C 33.7114 -2.5106 17.2498 -2.566 7.1306 7.5536 Z" fill="#fe5607"/></svg>